# xmcd
#
# Track frame offsets:
#	182
#	9742
#	24772
#	50157
#	73077
#	94290
#	109787
#	126400
#	151462
#	167162
#	180250
#
# Disc length: 2603 seconds
# Revision: 4
# Processed by: cddbd v1.5.2PL0 Copyright (c) Steve Scherf et al.
# Submitted via: dBpowerAMP V12.0
#
DISCID=900a290b
DTITLE=Johnny Winter - Raisin' Cain
DYEAR=1980
DGENRE=Blues Rock
TTITLE0=The Crawl
TTITLE1=Sitting in the Jail House
TTITLE2=Like a Rolling Stone
TTITLE3=New York, New York
TTITLE4=Bon Ton Roulet
TTITLE5=Rollin' and Tumblin'
TTITLE6=Talk Is Cheap
TTITLE7=Wolf in Sheep's Clothing
TTITLE8=Don't Hide Your Love
TTITLE9=Mother-In-Law Blues
TTITLE10=Walkin' Slowly
EXTD=
EXTT0=
EXTT1=
EXTT2=
EXTT3=
EXTT4=
EXTT5=
EXTT6=
EXTT7=
EXTT8=
EXTT9=
EXTT10=
PLAYORDER=
